# xmcd CD database file
#
# Track frame offsets:
#	150
#	12515
#	23315
#	32542
#	43717
#	54920
#	64710
#	74840
#	86325
#	97022
#	107740
#	118245
#	128907
#	138157
#	150785
#	160162
#	176520
#	187372
#
# Disc length: 2677 seconds
#
# Revision: 0
# Processed by: cddbd v1.4PL0 Copyright (c) Steve Scherf et al.
# Submitted via: CDex 1.40Release
#
DISCID=eb0a7312
DTITLE=Buck Owens - Norske Hits 1959-1969
DYEAR=1998
DGENRE=Country
TTITLE0=Under your spell again
TTITLE1=Act naturally
TTITLE2=Love s gonna live here
TTITLE3=Together again
TTITLE4=My heart skips a beat
TTITLE5=I don t care ( Just as long as you love me)
TTITLE6=I ve got a tiger by the tail
TTITLE7=Cryin time
TTITLE8=Only You  ( can break my heat )
TTITLE9=Waitin in your welfare line
TTITLE10=Think of me
TTITLE11=Where does the good times go
TTITLE12=Sam s place
TTITLE13=Your tender loving care
TTITLE14=It takes people like you ( To make people like me )
TTITLE15=Sweet Rosie Jones
TTITLE16=Who s gonna mow your grass
TTITLE17=Tall dark stranger
EXTD=YEAR: 1998 ID3G: 2
EXTT0=
EXTT1=
EXTT2=
EXTT3=
EXTT4=
EXTT5=
EXTT6=
EXTT7=
EXTT8=
EXTT9=
EXTT10=
EXTT11=
EXTT12=
EXTT13=
EXTT14=
EXTT15=
EXTT16=
EXTT17=
PLAYORDER=
